# xmcd
# 
# Track frame offsets:
#     150
#     17088
#     34820
#     51464
#     65602
#     79030
#     95421
#     111540
#     126439
#     140838
#     151782
#     167060
# 
# Disc length: 2442
# 
# Revision: 0
# Processed by: cddbd v1.5.2PL0 Copyright (c) Steve Scherf et al.
# Submitted via: fre:ac v1.0.31
# 
DISCID=aa09880c
DTITLE=Ollie - Villi Sydän
DYEAR=2018
DGENRE=Pop
TTITLE0=Villi Sydän
TTITLE1=Soita Mua
TTITLE2=Ongelma
TTITLE3=Perillä
TTITLE4=Haluun Enemmän
TTITLE5=Tähdet Lennossa Särkyneet
TTITLE6=3 Hulluu Sanaa
TTITLE7=Vaan Me
TTITLE8=Sä Et Oo Sä
TTITLE9=Paras Kaveri
TTITLE10=Terkkui Exille feat. Sonny
TTITLE11=Valot
EXTD=
EXTT0=
EXTT1=
EXTT2=
EXTT3=
EXTT4=
EXTT5=
EXTT6=
EXTT7=
EXTT8=
EXTT9=
EXTT10=
EXTT11=
PLAYORDER=
